<svg width="689" height="666" viewBox="0 0 689 666" fill="none" xmlns="http://www.w3.org/2000/svg">
<mask id="path-1-inside-1_456_1141" fill="white">
<path d="M222.822 46.6728C269.108 40.6132 312.379 52.7269 343.714 80.3909L343.755 80.3473L633.393 351.859L361.882 641.497L75.1612 372.72L75.1611 372.721C75.1383 372.7 75.116 372.678 75.0932 372.656L72.2434 369.985L72.2834 369.942C42.655 340.457 27.7744 298.058 30.8343 251.478C33.9918 203.413 55.9927 154.833 91.9972 116.425C128.002 78.0164 175.062 52.9257 222.822 46.6728Z"/>
</mask>
<path d="M222.822 46.6728C269.108 40.6132 312.379 52.7269 343.714 80.3909L343.755 80.3473L633.393 351.859L361.882 641.497L75.1612 372.72L75.1611 372.721C75.1383 372.7 75.116 372.678 75.0932 372.656L72.2434 369.985L72.2834 369.942C42.655 340.457 27.7744 298.058 30.8343 251.478C33.9918 203.413 55.9927 154.833 91.9972 116.425C128.002 78.0164 175.062 52.9257 222.822 46.6728Z" fill="black"/>
<path d="M222.822 46.6728L220.875 31.7997L220.875 31.7998L222.822 46.6728ZM343.714 80.3909L333.786 91.6357L344.678 101.252L354.637 90.6714L343.714 80.3909ZM343.755 80.3473L354.013 69.4038L343.092 59.1657L332.832 70.0668L343.755 80.3473ZM633.393 351.859L644.336 362.117L654.595 351.174L643.651 340.915L633.393 351.859ZM361.882 641.497L351.623 652.44L362.566 662.699L372.825 651.755L361.882 641.497ZM75.1612 372.72L85.4199 361.777L62.856 340.625L60.216 371.44L75.1612 372.72ZM75.1611 372.721L64.9025 383.665L87.4663 404.816L90.1064 374.002L75.1611 372.721ZM75.0932 372.656L85.3595 361.72L85.3509 361.712L75.0932 372.656ZM72.2434 369.985L61.1883 359.847L51.1594 370.783L61.9857 380.93L72.2434 369.985ZM72.2834 369.942L83.3385 380.08L93.0714 369.467L82.8641 359.309L72.2834 369.942ZM30.8343 251.478L15.8666 250.495L15.8666 250.495L30.8343 251.478ZM91.9972 116.425L81.0536 106.166L81.0536 106.166L91.9972 116.425ZM222.822 46.6728L224.77 61.5459C267.302 55.9777 306.089 67.1832 333.786 91.6357L343.714 80.3909L353.641 69.146C318.668 38.2707 270.914 25.2487 220.875 31.7997L222.822 46.6728ZM343.714 80.3909L354.637 90.6714L354.678 90.6278L343.755 80.3473L332.832 70.0668L332.791 70.1104L343.714 80.3909ZM343.755 80.3473L333.496 91.2909L623.134 362.802L633.393 351.859L643.651 340.915L354.013 69.4038L343.755 80.3473ZM633.393 351.859L622.449 341.6L350.938 631.238L361.882 641.497L372.825 651.755L644.336 362.117L633.393 351.859ZM361.882 641.497L372.14 630.553L85.4199 361.777L75.1612 372.72L64.9026 383.664L351.623 652.44L361.882 641.497ZM75.1612 372.72L60.216 371.44L60.2159 371.441L75.1611 372.721L90.1064 374.002L90.1065 374.001L75.1612 372.72ZM75.1611 372.721L85.4198 361.778C85.4509 361.807 85.4749 361.83 85.4874 361.841C85.4986 361.852 85.507 361.86 85.4998 361.853C85.498 361.852 85.4919 361.846 85.4855 361.84C85.4786 361.833 85.4688 361.824 85.4573 361.813C85.4348 361.791 85.4006 361.759 85.3595 361.72L75.0932 372.656L64.8269 383.593C64.7971 383.565 64.7743 383.543 64.763 383.532C64.7535 383.523 64.7457 383.516 64.7544 383.524C64.7586 383.528 64.7783 383.547 64.8008 383.568C64.8246 383.591 64.86 383.625 64.9025 383.665L75.1611 372.721ZM75.0932 372.656L85.3509 361.712L82.5011 359.041L72.2434 369.985L61.9857 380.93L64.8355 383.601L75.0932 372.656ZM72.2434 369.985L83.2985 380.124L83.3385 380.08L72.2834 369.942L61.2283 359.804L61.1883 359.847L72.2434 369.985ZM72.2834 369.942L82.8641 359.309C56.6753 333.248 42.9903 295.264 45.802 252.461L30.8343 251.478L15.8666 250.495C12.5586 300.852 28.6347 347.667 61.7026 380.574L72.2834 369.942ZM30.8343 251.478L45.802 252.461C48.7103 208.19 69.0746 162.811 102.941 126.684L91.9972 116.425L81.0536 106.166C42.9108 146.856 19.2733 198.636 15.8666 250.495L30.8343 251.478ZM91.9972 116.425L102.941 126.684C136.807 90.5562 180.779 67.3053 224.77 61.5459L222.822 46.6728L220.875 31.7998C169.345 38.5462 119.197 65.4767 81.0536 106.166L91.9972 116.425Z" fill="black" mask="url(#path-1-inside-1_456_1141)"/>
<mask id="path-3-inside-2_456_1141" fill="white">
<path d="M669.214 228.405C675.379 276.177 662.2 320.703 632.577 352.187L632.578 352.188L360.534 641.328L71.3951 369.283L343.439 80.1448L343.438 80.1447C373.061 48.6598 416.702 32.7953 464.761 36.0409C512.82 39.2867 561.36 61.377 599.702 97.4523C638.045 133.527 663.049 180.632 669.214 228.405Z"/>
</mask>
<path d="M669.214 228.405C675.379 276.177 662.2 320.703 632.577 352.187L632.578 352.188L360.534 641.328L71.3951 369.283L343.439 80.1448L343.438 80.1447C373.061 48.6598 416.702 32.7953 464.761 36.0409C512.82 39.2867 561.36 61.377 599.702 97.4523C638.045 133.527 663.049 180.632 669.214 228.405Z" fill="#F1EEE1"/>
<path d="M669.214 228.405L684.09 226.485L684.09 226.485L669.214 228.405ZM632.577 352.187L621.652 341.909L612.518 351.617L621.086 361.829L632.577 352.187ZM632.578 352.188L643.502 362.467L652.637 352.759L644.069 342.547L632.578 352.188ZM360.534 641.328L350.255 652.252L361.18 662.531L371.459 651.606L360.534 641.328ZM71.3951 369.283L60.4704 359.004L50.1917 369.929L61.1163 380.208L71.3951 369.283ZM343.439 80.1448L354.363 90.4235L375.556 67.8987L344.747 65.2019L343.439 80.1448ZM343.438 80.1447L332.513 69.866L311.32 92.3908L342.13 95.0876L343.438 80.1447ZM464.761 36.0409L465.772 21.075L465.772 21.075L464.761 36.0409ZM599.702 97.4523L609.981 86.5276L609.981 86.5276L599.702 97.4523ZM669.214 228.405L654.337 230.325C660.002 274.219 647.822 314.094 621.652 341.909L632.577 352.187L643.502 362.466C676.578 327.311 690.756 278.134 684.09 226.485L669.214 228.405ZM632.577 352.187L621.086 361.829L621.087 361.83L632.578 352.188L644.069 342.547L644.068 342.546L632.577 352.187ZM632.578 352.188L621.653 341.91L349.609 631.049L360.534 641.328L371.459 651.606L643.502 362.467L632.578 352.188ZM360.534 641.328L370.813 630.403L81.6738 358.358L71.3951 369.283L61.1163 380.208L350.255 652.252L360.534 641.328ZM71.3951 369.283L82.3197 379.562L354.363 90.4235L343.439 80.1448L332.514 69.8661L60.4704 359.004L71.3951 369.283ZM343.439 80.1448L344.747 65.2019L344.746 65.2019L343.438 80.1447L342.13 95.0876L342.131 95.0877L343.439 80.1448ZM343.438 80.1447L354.362 90.4235C380.533 62.6087 419.592 48.0246 463.75 51.0068L464.761 36.0409L465.772 21.075C413.812 17.5659 365.59 34.7109 332.513 69.866L343.438 80.1447ZM464.761 36.0409L463.75 51.0068C508.016 53.9965 553.359 74.4442 589.424 108.377L599.702 97.4523L609.981 86.5276C569.362 48.3098 517.624 24.577 465.772 21.075L464.761 36.0409ZM599.702 97.4523L589.424 108.377C625.489 142.31 648.659 186.323 654.337 230.325L669.214 228.405L684.09 226.485C677.439 174.942 650.6 124.745 609.981 86.5276L599.702 97.4523Z" fill="black" mask="url(#path-3-inside-2_456_1141)"/>
<circle cx="206.451" cy="362.785" r="51" transform="rotate(4.89687 206.451 362.785)" fill="#F1EEE1" stroke="black" stroke-width="15"/>
<path d="M141.722 128.403C159.606 129.936 172.861 145.675 171.329 163.559C169.797 181.443 154.057 194.698 136.174 193.166C118.29 191.634 105.034 175.894 106.566 158.011C108.099 140.127 123.838 126.871 141.722 128.403ZM541.655 117.001C559.539 118.533 572.794 134.273 571.262 152.157C569.73 170.041 553.99 183.296 536.107 181.764C518.223 180.232 504.967 164.492 506.5 146.608C508.032 128.725 523.771 115.469 541.655 117.001Z" fill="#F6F5F3" stroke="black" stroke-width="10"/>
<path d="M353.431 441.117C381.494 443.522 402.295 468.221 399.891 496.285C397.487 524.348 372.787 545.149 344.724 542.745C316.66 540.34 295.859 515.641 298.263 487.578C300.668 459.514 325.367 438.713 353.431 441.117Z" fill="#F1EEE1" stroke="black" stroke-width="15"/>
<circle cx="349.293" cy="218.451" r="51" transform="rotate(4.89687 349.293 218.451)" fill="#F1EEE1" stroke="black" stroke-width="15"/>
<path d="M488.13 296.588C516.194 298.992 536.995 323.692 534.59 351.755C532.186 379.819 507.487 400.62 479.423 398.216C451.359 395.811 430.558 371.112 432.963 343.048C435.367 314.985 460.066 294.184 488.13 296.588Z" fill="#F1EEE1" stroke="black" stroke-width="15"/>
</svg>
